<?xml version="1.0" encoding="UTF-8"?>
<svg width="786px" height="656px" viewBox="0 0 786 656" version="1.1" xmlns="http://www.w3.org/2000/svg" xmlns:xlink="http://www.w3.org/1999/xlink">
    <!-- Generator: Sketch 52.6 (67491) - http://www.bohemiancoding.com/sketch -->
    <title>eyes-favicon</title>
    <desc>Created with Sketch.</desc>
    <g id="Page-1" stroke="none" stroke-width="1" fill="none" fill-rule="evenodd">
        <g id="Home-Copy-2" transform="translate(-315.000000, -52.000000)">
            <g id="eyes-favicon" transform="translate(315.000000, 52.000000)">
                <path d="M224.8,483.42 C224.24,485.67 224.97,488.34 222.41,489.2 C219.85,490.06 218.41,488.01 217.12,486.35 C214.337651,482.502665 212.516898,478.045077 211.81,473.35 C211.68933,472.014818 212.20873,470.701476 213.21,469.81 C214,469.29 215.93,469.62 216.85,470.28 C221.21445,473.361569 224.095776,478.123911 224.8,483.42 Z" id="Path" fill="#FFFFFF"></path>
                <path d="M564.21,485 C564.21,481.1 566.79,473.51 571.91,470.35 C572.91,469.74 574.78,469.41 575.56,469.95 C576.547735,470.860567 577.048081,472.183704 576.91,473.52 C576,478.34 574.54,483.03 571.24,486.84 C569.96,488.31 568.24,490.25 566.24,488.99 C565,488.21 564.21,488.86 564.21,485 Z" id="Path" fill="#FFFFFF"></path>
                <path d="M271.41,539.22 C268.8,542.74 264.06,531.49 266.15,526.31 C267.84,525.73 268.84,526.81 269.39,528.03 C270.89,531.43 274,535.71 271.41,539.22 Z" id="Path" fill="#FFFFFF"></path>
                <path d="M517.51,538.93 C514,538.67 517.87,531.82 519.14,528.52 C519.7,527.08 520.35,525.85 522.64,526.4 C524.93,526.95 521,539.18 517.51,538.93 Z" id="Path" fill="#FFFFFF"></path>
                <path d="M721.88,47.43 C720.58,48.7 716.13,46.37 714.65,42.9 C713.17,39.43 713.83,33.71 715.97,33.48 C718.62,33.2 724.22,45.16 721.88,47.43 Z" id="Path" fill="#FFFFFF"></path>
                <path d="M66.37,47.87 C65.27,42.32 68.76,31.09 72.55,34.6 C76.34,38.11 73.27,42.79 72.02,45.77 C71.37,47.31 68.25,48.35 66.37,47.87 Z" id="Path" fill="#FFFFFF"></path>
                <path d="M215.26,494.94 C214.43,498 199.68,486.82 208.45,486.18 C212.93,486.66 216.09,491.88 215.26,494.94 Z" id="Path" fill="#FFFFFF"></path>
                <path d="M572.15,495.2 C572.94,496.53 576.64,495.2 578.8,492.98 C580.96,490.76 581.12,487.27 579.96,486.05 C578.8,484.83 576.14,490.1 574.81,491.32 C573.48,492.54 571.59,494.25 572.15,495.2 Z" id="Path" fill="#FFFFFF"></path>
                <path d="M785.76,316.52 C785.76,311.52 785.82,306.43 785.68,301.38 C785.54,296.63 785.19,291.89 784.9,287.15 C784.883805,285.923245 784.729499,284.702217 784.44,283.51 C782.67,277.6 783.86,271.59 784.36,265.76 C784.8,260.65 785.15,255.76 784.01,250.76 C782.68756,245.067551 782.209112,239.211617 782.59,233.38 C782.893412,229.404631 782.866654,225.410947 782.51,221.44 C781.51,211.21 780.07,201.02 778.94,190.8 C777.94,181.8 777.53,172.72 776.13,163.8 C773.83,149.11 771.73,134.38 767.76,119.99 C765.44,111.57 763.7,102.99 761.29,94.58 C759.09,86.92 756.42,79.39 753.79,71.86 C752.36,67.75 752.03,63.47 749.36,59.5 C745.56,53.88 744.08,48.81 741.09,42.63 C740.259497,41.2816359 739.337325,39.9919318 738.33,38.77 C736.46,36.42 732.57,33.34 732.63,31.45 C732.69,29.56 736.28,34.71 736.28,33.07 C736.28,30.92 730.67,22.33 724.28,19.07 C720.857071,16.9983854 717.909584,14.2280885 715.63,10.94 C714.87,9.82 714.46,8.45 713.05,7.94 C711.64,7.43 710.77,8.94 709.61,8.63 C708.45,8.32 710.61,5.56 707.21,3.54 C703.265008,1.40042869 698.761491,0.514376602 694.3,1 C692.455203,0.778458161 690.593609,0.731583504 688.74,0.86 C686.05,1.2 684.19,3.37 679.62,4.49 C677.269098,5.07775735 675.211597,6.4991737 673.83,8.49 C672.55,10.39 667.77,10.36 667.13,13.49 C666.49,16.62 669.68,19.28 674.19,20.12 C675.25,20.31 676.31,20.47 677.38,20.62 C684.65,21.62 692,22.31 699.19,23.76 C703.31,24.59 707.27,26.48 711.11,28.31 C712.57,29 713.73,29.58 715.36,29.23 C716.36,29.01 717.77,28.6 718.51,29.23 C719.25,29.86 721.51,33.92 723.31,35.87 C724.363042,36.7173694 724.834046,38.0953492 724.52,39.41 C724.02,42.14 724.24,45 726.16,47.14 C728.271671,49.5427753 730.616485,51.7301516 733.16,53.67 C736.01,55.8 736.66,58.39 736.16,61.67 C735.758168,64.6639065 736.101664,67.7107122 737.16,70.54 C739.26,76.26 741.84,81.96 742.86,87.89 C743.88,93.82 746.21,99.28 747.75,105 C749.451605,110.619693 750.211868,116.482162 750,122.35 C749.74,126.47 749.26,130.87 750.36,134.72 C752.17,141.09 750.12,150.52 748.3,152.3 C746.85766,153.555143 746.050924,155.388634 746.1,157.3 C746.04,159.91 746.1,162.52 746.17,165.13 C746.17,166.45 746.67,167.82 744.97,168.72 C744.38,169.04 744.31,170.29 743.97,171.1 C743.536971,172.37943 742.96347,173.606923 742.26,174.76 C739.580311,178.449405 737.77478,182.699925 736.98,187.19 C735.7,193.91 735.47,200.85 735.16,207.71 C735.03,210.44 735.04,213.09 733.81,215.55 C732.47,218.24 730.81,220.8 729.61,223.55 C728.61,225.75 728.38,228.43 727.04,230.34 C724.43,234.03 722.22,237.92 721.39,242.27 C720.05,249.22 716.39,259.98 714.63,261.37 C712.87,262.76 713.16,260.73 711.78,261.45 C710.4,262.17 709.94,263.77 709.35,265.1 C707.61,268.98 706.29,273.1 704.26,276.77 C702.829783,279.116618 701.931997,281.748529 701.63,284.48 C701.51,286 701.16,287.48 700.99,289.01 C700.68,291.73 699.71,294.62 700.32,297.12 C701.18,300.61 700.56,303.59 699.62,306.83 C699,308.93 698.51,310.63 695.92,310.7 C694.2,310.7 694.23,311.82 693.47,312.53 C692.71,313.24 691.96,314.61 690.94,315.13 C686.49,317.41 684.66,321.86 682.87,325.85 C679.43,333.51 676.87,341.57 673.95,349.46 C673.26,351.32 672.88,353.4 671.79,354.98 C669.28,358.6 667.98,362.59 666.79,366.78 C665.52,371.41 664.59,375.93 665.02,380.78 C665.38,384.78 662.52,386.43 659.13,384.34 C656.83,382.92 654.8,382.87 652.76,384.4 C650.035126,386.371554 647.418029,388.487931 644.92,390.74 C642.84,392.69 640.78,393.56 637.92,392.93 C636.47,392.62 634.59,394.03 632.98,393.66 C631.37,393.29 629.68,390.52 625.98,391.48 C622.28,392.44 619.42,393.55 618.98,397.06 C618.69,399.5 618.7,401.99 618.2,404.38 C617.27,408.91 618.13,413.27 619.2,417.6 C619.74,419.9 622.81,421.68 625.83,421.76 C628.62,421.83 629.83,423.9 629.11,426.59 C628.772545,427.768309 628.256559,428.887965 627.58,429.91 C626.213933,431.969878 625.691274,434.47578 626.12,436.91 C626.35,438.28 625.71,439.85 625.25,441.25 C624.88,442.4 623.91,443.4 623.69,444.56 C622.4,451.2 618.01,456.01 614.09,461.08 C608.38,468.44 601.97,475.34 599.62,484.75 C599.107333,486.531186 598.499799,488.283687 597.8,490 C597.114734,492.03629 595.51629,493.634734 593.48,494.32 C586.94,496.93 580.54,499.89 574.16,502.87 C569.54,505.03 566.54,508.46 566.44,513.87 C566.531689,514.784455 566.305687,515.702592 565.8,516.47 C564.96,518.21 563.8,515.22 563.64,514.55 C563.07,512.67 562.72,510.82 563.86,508.81 C565.42,506.06 566.93,500.35 566,499.73 C565.07,499.11 561.73,500.07 561,496.21 C560.63,494.13 559.36,490.32 558.58,490.34 C557.8,490.36 556.33,491.52 555.45,492.34 C552.45,494.98 549.25,497.43 546.81,500.49 C543.42,504.74 539.53,508.88 539.3,514.89 C539.166139,516.894096 538.23296,518.760453 536.71,520.07 C535.152238,521.71418 533.896371,523.619983 533,525.7 C530.51,531.1 528.45,536.7 525.84,542.04 C524.424065,544.562574 522.719255,546.911721 520.76,549.04 C518.22,552.1 515.33,554.87 512.92,558.04 C510.378417,561.540172 506.738381,564.088901 502.58,565.28 C498.586213,566.362986 494.650979,567.651366 490.79,569.14 C486.01,571.05 482.37,574.31 479.03,578.96 C476.49,581.5 471.29,586.59 467.79,588.96 C467.16,589.39 466.41,589.65 465.79,590.11 C461.52,593.36 457.71,597.39 458.86,603.11 C459.38,605.73 459.18,611.49 456.73,614.06 C453.3,617.67 445.26,609.68 443.98,605.82 C442.7,601.96 442.43,597.44 441.72,595.19 C441.01,592.94 433.47,581.19 431.22,581.08 C428.97,580.97 429.8,581.53 428.9,583.65 C427.905434,586.064942 427.905434,588.775058 428.9,591.19 C430,593.38 431.9,598.79 435.54,602.02 C439.18,605.25 439.98,604.66 441.27,609.17 C442.56,613.68 447.08,623.09 457.5,624.89 C462.5,625.76 465.64,630.26 469.36,633.78 C472.9,637.13 477.04,638.45 480.72,641.65 C482.315668,642.821388 483.826134,644.104615 485.24,645.49 C487.741047,648.227863 490.992976,650.168586 494.59,651.07 C497.07,651.81 500.48,653.36 502.3,652.98 C504.12,652.6 506.85,649.75 509.16,650.91 C511.47,652.07 507.45,652.76 509.55,653.67 C511.65,654.58 517.08,654.59 520.67,655.29 C523.973403,655.836958 527.325199,656.034714 530.67,655.88 C535.16,655.8 539.61,654.99 544.24,655.71 C549.604248,656.484741 555.078075,655.689369 560,653.42 C562.7,652.2 565.12,650.65 566.12,647.58 C567.42,643.58 567.6,643.58 571.92,643.47 C575.92,643.35 579.92,643.21 583.83,642.75 C592.34,641.75 600.83,640.37 609.33,639.48 C614.95,638.89 620.66,639.14 626.33,638.48 C631.327036,637.817645 636.286867,636.899776 641.19,635.73 C642.373229,635.392673 643.443958,634.743327 644.29,633.85 C650.456667,627.85 656.573333,621.823333 662.64,615.77 C663.422743,614.819948 664.093805,613.783157 664.64,612.68 C666.73,609.31 668.76,605.9 670.91,602.57 C674.23,597.42 677.72,592.38 680.91,587.16 C681.962663,585.640078 682.534059,583.838786 682.55,581.99 C682.13,577.66 684.78,575.74 687.77,573.62 C691.77,570.79 695.54,567.62 699.38,564.62 C700.82,563.47 702.14,562.18 703.59,561.05 C706.11,559.11 709.47,557.3 710.59,560.05 C711.71,562.8 714.42,558.25 715.42,557.13 C720.493538,551.562614 724.648827,545.22335 727.73,538.35 C729.44,534.46 731.86,530.88 733.89,527.12 C736.65,522.02 739.4,516.99 740.75,511.18 C741.88,506.32 744.1,501.7 745.99,497.04 C746.49,495.8 747.47,494.32 749.13,495.18 C750.79,496.04 750.13,497.48 749.45,498.78 C748.659654,500.093606 748.012613,501.488263 747.52,502.94 C747.05,504.74 746.13,505.94 746.71,508.72 C747.29,511.5 750.23,506.89 750.62,508.56 C751.01,510.23 750.35,512.64 749.48,514.69 C747.77,518.69 746.59,523.04 742.89,526.09 C740.19,528.32 737.19,532.65 738.15,535.38 C739.11,538.11 743.28,534.78 744.63,532.51 C748.4,526.15 751.81,519.64 753.05,512.23 C753.43,509.96 753.78,507.69 754.24,505.44 C758.81,482.83 768.06,461.57 773.47,439.21 C776.6,426.21 779.62,413.21 781.94,400.13 C784.32469,386.047642 785.349408,371.768567 785,357.49 C784.84,347.83 785.66,338.16 785.92,328.49 C786.05,324.51 785.8,320.51 785.76,316.52 Z M485.43,582.16 C483.75,585.32 481.56,588.03 479.69,586.22 C477.69,584.22 479.37,581.13 481.11,579.78 C482.85,578.43 487.1,579 485.43,582.16 Z" id="Shape" fill="#212121" fill-rule="nonzero"></path>
                <path d="M355.87,581.28 C353.32,579.83 347.76,586.61 345.43,592.05 C343.1,597.49 344.54,596.16 343.43,601.83 C342.32,607.5 336.55,614.71 330.88,614.26 C325.21,613.81 327.22,608.05 327.31,601.08 C327.36,597.17 326.36,594.03 323.51,591.68 C319.27,588.21 311.08,586.68 307.94,580.5 C304.630122,574.085398 298.88957,569.263191 292,567.11 C289.94,566.5 287.91,565.75 285.82,565.34 C280.18,564.21 276.22,560.88 272.96,556.34 C271.402545,554.065137 269.564747,551.995514 267.49,550.18 C264.199637,547.387544 261.688174,543.790881 260.2,539.74 C258.14,534.48 256.44,529.05 253.99,523.98 C251.197795,518.189925 248.031079,512.588046 244.51,507.21 C240.21,500.67 232.91,489.39 227.92,490.1 C222.93,490.81 226.65,493.77 226.13,495.45 C225.73,496.75 225.82,498.51 224.98,499.26 C224.14,500.01 221.4,497.75 220.42,500.19 C219.44,502.63 222.29,506.26 223.42,509.19 C224.55,512.12 223.69,515.67 221.7,516.08 C219.71,516.49 220.9,515.02 220.89,514.52 C220.79,507.85 216.71,504.38 211.11,501.97 C205.77,499.67 200.62,496.88 195.16,494.97 C191.733922,493.967114 189.189431,491.084137 188.62,487.56 C187.8,484.01 186.99,480.22 185.1,477.22 C181.422118,471.383465 177.324644,465.82213 172.84,460.58 C167.54,454.38 164.52,447.09 161.47,439.75 C161.214588,439.186716 161.121095,438.563431 161.2,437.95 C162,434.05 160.49,430.83 158.68,427.52 C156.87,424.21 158.1,422.23 161.8,421.87 C163.8,421.66 165.21,420.87 165.57,419.13 C166.585752,414.978259 167.234913,410.74533 167.51,406.48 C167.61,403.02 166.7,399.48 165.98,396.06 C165.713483,394.737259 165.008885,393.542966 163.98,392.67 C160.59,390.12 156.93,392.99 153.89,394.05 C150.85,395.11 151.67,393.23 149.95,392.86 C148.23,392.49 143.95,392.35 141.43,389.94 C139.051712,387.781931 136.503474,385.818918 133.81,384.07 C132.17,382.92 130.42,383.07 128.59,384.01 C124.3,386.13 121.96,384.51 122.28,379.72 C122.81,371.66 120.02,364.39 116.86,357.22 C115.51,354.16 113.95,351.22 112.73,348.07 C111.39,344.67 110.39,341.13 109.11,337.7 C108.11,334.98 106.76,332.37 105.83,329.63 C103.83,323.63 101.08,318.12 95.55,314.48 C95.0672878,314.099361 94.6688773,313.62263 94.38,313.08 C93.6108498,311.545303 92.0919006,310.527607 90.38,310.4 C88.71,310.3 88.24,309 87.91,307.53 C87.58,306.06 86.91,304.68 86.56,303.23 C86.2310765,302.411745 86.1442974,301.516184 86.31,300.65 C89.21,293.65 85.21,287.19 84.72,280.47 C84.72,279.71 82.62,279.11 82.53,278.32 C81.99,273.42 78.81,269.46 77.87,264.71 C77.6793461,262.643883 76.0019578,261.030355 73.93,260.92 C73.09,260.83 72.22,259.66 71.67,258.79 C71.32,258.23 71.8,257.09 71.42,256.6 C67.55,251.6 67.24,245.24 65.06,239.6 C62.88,233.96 60.28,228.76 57.85,223.34 C57.17,221.82 56.78,220.08 55.79,218.81 C53.351806,215.747797 52.0954389,211.911264 52.25,208 C52.25,201.13 51.18,194.27 50.53,187.41 C50.4937207,186.650318 50.2778141,185.910067 49.9,185.25 C47.46,181.61 47.75,176.67 44.21,173.53 C43.63,173.01 43.64,171.83 43.39,170.95 C43.18,170.23 43.15,168.95 42.77,168.88 C39.84,168 41.05,165.79 41,164 C40.91,160.8 40.87,157.59 40.55,154.42 C40.43,153.33 39.36,152.42 39.01,151.28 C38.6650703,149.886467 38.4012937,148.474094 38.22,147.05 C37.61,143.81 36.57,140.58 36.49,137.33 C36.38,132.15 36.84,126.96 37.19,121.78 C37.49,117.51 37.4,113.1 38.52,109.04 C42.02,96.25 45.98,83.58 49.83,70.88 C50.75,67.81 51.83,64.88 50.96,61.51 C50.2049817,59.2600364 50.7082174,56.7781699 52.28,55 C54.2813785,52.6781388 56.5277456,50.5792943 58.98,48.74 C62.6,46.31 63.17,43.05 62.78,39.2 C62.69,38.32 62.53,37.2 62.98,36.58 C64.92,33.95 64.45,29.81 68.98,29.13 C73.51,28.45 73.7,29.52 75.3,28.56 C82.48,24.25 90.48,23.06 98.49,21.84 C103.49,21.08 108.55,20.77 113.55,20.07 C116.498894,19.6042241 118.827852,17.319436 119.35,14.38 C119.59,12.38 118.6,12.46 114.74,8.71 C110.88,4.96 93.46,-0.64 87.83,1.1 C82.2,2.84 81.53,3.32 78.36,4.38 C76.13,5.14 78.22,7.53 76.65,8.6 C75.84,8.23 76.4,5.29 73.99,7.38 C71.58,9.47 65.93,16.89 60.66,20.49 C57.56,22.6 53.79,23.4 51.37,28.68 C50.98,29.53 48.37,37 51.37,33.24 C54.37,29.48 55.14,30.17 54.37,32.53 C53.6875781,34.4778578 52.2441984,36.0655754 50.37,36.93 C46.94,38.93 46.37,42.37 44.85,45.3 C42.8676649,48.7463489 41.1171224,52.3209301 39.61,56 C38.4,59.27 35.61,61.61 34.86,65 C34.5123069,66.9221568 34.0515063,68.8221248 33.48,70.69 C28.31,85.31 24.14,100.19 20.38,115.25 C14.82,137.51 11.38,160.05 9.05,182.81 C8.05,193.04 6.61,203.23 5.5,213.44 C4.94,218.61 4.16,223.83 4.34,229 C4.59,235.77 5.34,242.63 3.34,249.12 C0.82,257.12 3.17,264.93 3.15,272.82 C3.15,275.25 3.65,277.76 3.24,280.1 C1.44,290.27 1.61,300.57 1.03,310.81 C0.69,316.76 0.93,322.75 1.09,328.71 C1.39,340.06 2.17,351.4 2.09,362.71 C2.03717062,375.920838 3.21559904,389.107854 5.61,402.1 C8.18,416.1 11.52,429.99 15.02,443.8 C17.31,452.8 20.62,461.62 23.19,470.61 C26.85,483.43 30.78,496.21 33.56,509.23 C35.1998505,516.858986 37.924192,524.213697 41.65,531.07 C43.18,533.94 45.35,535.13 48.43,535.57 C48.59,534.87 48.9,534.37 48.76,534.04 C47.45,530.78 46.11,527.57 43.45,525.04 C42.0013612,523.694032 40.8412373,522.067817 40.04,520.26 C38.41,516.26 37.16,512.16 35.56,507.51 L40.4,509.17 C40.9683375,506.319506 40.5263664,503.360067 39.15,500.8 C38.5683284,499.922558 38.0853978,498.983526 37.71,498 C37.6825867,497.054708 37.8144272,496.111541 38.1,495.21 C38.88,495.51 39.86,495.61 40.38,496.15 C41.2439894,497.037971 41.9237127,498.088144 42.38,499.24 C43.9005023,502.918541 45.1766079,506.693409 46.2,510.54 C47.4919179,516.382392 49.8661442,521.931298 53.2,526.9 C55.6211769,530.597242 57.7605566,534.471525 59.6,538.49 C60.8085212,541.312608 62.2153719,544.046109 63.81,546.67 C67.09,551.67 70.01,556.93 75.19,560.38 L79.53,558.54 C81.53,559.9 83.7,560.91 85.29,562.54 C90.2243718,567.373804 95.6352739,571.695825 101.44,575.44 C102.929394,576.458559 103.931797,578.047204 104.21,579.83 C104.355652,583.529707 105.579113,587.106244 107.73,590.12 C110.81,594.7 114.07,599.12 117.11,603.76 C119.04,606.68 120.68,609.76 122.48,612.76 C123.088068,613.995777 123.847207,615.151281 124.74,616.2 C130.62,622.02 136.58,627.77 142.55,633.49 C143.371376,634.418103 144.398855,635.140763 145.55,635.6 C154.44,638.04 163.43,639.72 172.72,639.55 C177.619773,639.379101 182.525369,639.599803 187.39,640.21 C196.94,641.55 206.33,644.01 216.11,643.51 C219.49,643.33 220.11,643.87 220.98,647.02 C221.528968,649.460991 223.218373,651.489021 225.52,652.47 C228.32,653.63 231.24,655 234.18,655.19 C240.58,655.61 247.03,655.31 253.45,655.35 C256.65,655.35 259.86,655.72 263.04,655.51 C267.62,655.2 272.17,654.51 276.72,653.98 C277.051604,653.885116 277.368085,653.74371 277.66,653.56 C277.76,652.63 277.87,651.65 277.97,650.76 C279.758135,649.893917 281.902406,650.300029 283.25,651.76 C284.4,652.95 285.63,652.82 287.05,652.38 C288.65,651.87 290.33,651.63 291.95,651.18 C295.7,650.18 299.14,648.54 301.77,645.51 C302.582408,644.592697 303.465081,643.740115 304.41,642.96 C308.83,639.2 313.16,635.33 317.74,631.77 C321.601641,628.773857 325.627937,625.99618 329.8,623.45 C333.095672,622.140056 336.112487,620.215946 338.69,617.78 C342.24,614.11 345.02,607.78 348.24,603.67 C351.46,599.56 354.68,598.01 357.12,591.35 C359.56,584.69 358.43,582.72 355.87,581.28 Z M305.1,585.43 C301.7,584.55 299.05,583.32 300,580.2 C300.65,578.07 304.83,578.84 306.05,581.62 C307.27,584.4 308.49,586.31 305.1,585.43 Z" id="Shape" fill="#212121" fill-rule="nonzero"></path>
            </g>
        </g>
    </g>
</svg>