<?xml version="1.0" standalone="no"?>
<!DOCTYPE svg PUBLIC "-//W3C//DTD SVG 20010904//EN"
 "http://www.w3.org/TR/2001/REC-SVG-20010904/DTD/svg10.dtd">
<svg version="1.0" xmlns="http://www.w3.org/2000/svg"
 width="786.000000pt" height="786.000000pt" viewBox="0 0 786.000000 786.000000"
 preserveAspectRatio="xMidYMid meet">
<metadata>
Created by potrace 1.11, written by Peter Selinger 2001-2013
</metadata>
<g transform="translate(0.000000,786.000000) scale(0.100000,-0.100000)"
fill="#000000" stroke="none">
<path d="M843 7187 c-39 -13 -65 -28 -68 -38 -4 -10 -12 -16 -18 -13 -7 2 -37
-22 -67 -53 -30 -32 -73 -69 -95 -83 -42 -25 -77 -61 -81 -83 -1 -6 -6 -21
-10 -32 -7 -20 -7 -20 14 -1 22 19 22 19 22 -1 0 -11 -11 -25 -24 -33 -14 -7
-38 -38 -54 -69 -77 -144 -114 -217 -117 -231 -7 -37 -27 -105 -37 -129 -6
-14 -12 -30 -14 -36 -1 -5 -25 -91 -52 -191 -28 -99 -53 -196 -56 -215 -3 -20
-8 -42 -10 -50 -3 -8 -8 -27 -11 -44 -26 -145 -46 -268 -50 -305 -3 -25 -8
-61 -10 -80 -6 -41 -16 -132 -20 -175 -2 -16 -4 -30 -5 -30 0 0 -3 -20 -5 -45
-6 -63 -13 -126 -21 -174 -3 -23 -8 -106 -9 -186 -2 -80 -7 -158 -13 -175 -5
-16 -8 -59 -6 -95 4 -119 4 -255 -2 -290 -13 -91 -17 -313 -9 -550 10 -311 19
-495 25 -495 1 0 3 -11 5 -25 3 -31 14 -90 20 -110 2 -8 7 -31 10 -50 11 -63
44 -207 54 -234 6 -14 9 -26 6 -26 -2 0 7 -39 21 -87 31 -112 25 -90 84 -283
28 -91 55 -185 61 -210 6 -25 12 -52 15 -60 2 -8 13 -52 24 -98 28 -116 84
-230 116 -238 14 -4 27 -4 30 -1 6 6 -31 74 -55 102 -18 20 -42 70 -57 115
-15 47 -14 52 11 46 20 -5 22 -3 20 24 -1 16 -9 40 -17 52 -16 25 -13 48 7 48
17 0 65 -116 81 -198 1 -7 19 -43 40 -80 21 -37 54 -99 74 -138 79 -155 139
-229 178 -219 19 5 78 -17 92 -34 11 -14 98 -87 119 -101 33 -21 61 -51 62
-67 1 -7 3 -17 4 -23 1 -5 3 -16 4 -24 0 -8 37 -68 81 -134 44 -66 80 -123 80
-127 0 -11 23 -37 131 -145 98 -98 110 -107 160 -118 101 -22 114 -23 224 -27
105 -3 213 -12 225 -20 7 -4 121 -17 185 -20 28 -2 53 -4 57 -4 4 -1 14 -16
22 -35 13 -30 41 -55 71 -62 6 -2 24 -7 40 -11 31 -9 302 -9 388 0 32 3 55 12
68 26 23 25 26 25 45 7 13 -13 26 -14 84 -1 8 2 16 4 18 5 1 2 5 3 10 4 22 5
65 37 146 109 50 44 109 92 131 106 22 14 42 29 45 32 3 4 25 17 50 29 49 25
107 81 130 126 18 35 19 37 70 97 49 59 57 73 69 126 10 48 -5 73 -39 64 -29
-8 -87 -91 -95 -138 -4 -22 -10 -49 -12 -60 -2 -11 -5 -25 -7 -32 -5 -24 -54
-73 -88 -87 -53 -23 -68 -2 -67 93 1 90 -12 111 -100 162 -41 23 -74 53 -97
84 -57 80 -98 108 -206 140 -55 15 -104 45 -121 72 -5 8 -26 33 -49 56 -64 67
-83 96 -118 187 -18 47 -38 91 -43 98 -5 6 -6 12 -2 12 5 0 1 8 -7 18 -8 9
-18 25 -21 35 -4 9 -32 56 -64 104 -32 47 -62 93 -67 102 -15 28 -79 72 -101
69 -17 -3 -19 -9 -17 -39 3 -37 -8 -53 -38 -54 -20 0 -20 -21 3 -75 17 -41 17
-90 -1 -90 -4 0 -13 20 -19 43 -15 54 -48 80 -158 127 -139 60 -137 58 -166
142 -27 78 -33 88 -137 227 -73 96 -128 208 -130 263 -1 21 -8 51 -17 67 -22
44 -19 58 19 71 33 10 37 16 53 80 10 40 4 148 -11 184 l-16 39 -48 -7 c-26
-3 -48 -10 -50 -15 -2 -5 -18 -3 -35 4 -18 7 -36 14 -42 15 -25 6 -52 20 -71
38 -41 39 -79 53 -115 40 -27 -9 -34 -8 -44 6 -7 9 -12 30 -11 47 1 16 -2 29
-8 29 -6 0 -6 4 1 11 10 10 9 20 -15 89 -3 8 -6 18 -7 23 -2 4 -4 9 -5 12 -1
3 -3 8 -4 13 -1 4 -12 30 -25 57 -31 68 -62 152 -59 158 1 1 -5 13 -12 27 -8
14 -15 28 -16 33 -1 4 -3 9 -4 12 -1 3 -3 8 -4 13 -6 37 -65 126 -108 165 -29
26 -60 55 -69 63 -20 18 -29 69 -19 104 8 28 -19 170 -36 191 -6 8 -14 23 -17
34 -25 83 -48 130 -70 143 -15 9 -33 36 -43 61 -9 25 -21 50 -25 55 -5 6 -9
18 -9 29 0 25 -43 132 -97 242 -28 57 -46 108 -48 140 -3 27 -7 79 -10 115 -8
98 -14 118 -60 215 -35 71 -44 103 -46 150 -1 33 -5 65 -9 70 -14 19 -32 134
-32 196 0 139 11 228 42 334 18 61 33 117 35 125 2 8 8 27 14 43 6 15 13 38
15 50 2 12 11 40 19 62 7 22 15 67 16 99 3 64 15 88 68 127 31 23 57 66 52 85
-6 21 13 82 32 102 13 15 32 22 57 22 21 0 42 4 48 9 14 15 125 49 176 55 26
3 62 8 81 11 19 3 49 7 68 9 52 6 89 17 84 26 -3 5 -1 11 5 15 30 18 -4 66
-70 100 -40 21 -152 57 -158 51 -2 -3 -14 -1 -26 3 -14 6 -42 2 -83 -12z
m2211 -5786 c9 -7 16 -22 16 -32 0 -22 0 -22 -36 -6 -35 15 -47 59 -16 54 11
-2 27 -9 36 -16z"/>
<path d="M6844 7183 c-27 -13 -54 -23 -61 -23 -7 0 -23 -9 -35 -21 -13 -11
-36 -30 -52 -43 -46 -36 -14 -78 69 -90 22 -4 54 -8 70 -11 17 -2 48 -6 70 -9
67 -8 128 -24 180 -47 28 -13 61 -22 75 -20 20 2 31 -7 55 -45 19 -29 30 -60
30 -82 -1 -28 9 -44 57 -93 32 -32 58 -62 58 -66 1 -4 2 -33 4 -63 2 -30 13
-82 25 -115 20 -53 50 -152 49 -158 -1 -1 7 -29 17 -62 23 -74 19 -60 32 -125
11 -53 17 -166 17 -315 0 -51 -6 -81 -21 -110 -13 -25 -21 -60 -22 -93 -1 -41
-9 -69 -38 -125 -21 -39 -38 -75 -40 -81 -1 -6 -7 -30 -13 -54 -6 -24 -13 -89
-15 -145 -4 -61 -12 -116 -21 -137 -9 -19 -38 -80 -64 -135 -41 -84 -59 -134
-75 -200 -1 -5 -6 -19 -10 -30 -4 -11 -14 -35 -21 -53 -8 -19 -23 -36 -35 -39
-15 -4 -33 -31 -60 -90 -51 -111 -61 -151 -64 -258 -2 -84 -19 -150 -35 -140
-10 6 -97 -73 -119 -109 -11 -17 -42 -94 -70 -171 -29 -77 -59 -152 -67 -168
-30 -53 -61 -163 -63 -222 -1 -33 -6 -64 -11 -69 -6 -6 -26 -5 -50 3 -39 12
-43 11 -77 -16 -20 -15 -47 -37 -61 -47 -33 -26 -110 -37 -142 -21 -27 13 -66
11 -85 -5 -7 -5 -14 -7 -17 -4 -4 3 -9 -7 -12 -23 -33 -161 -16 -245 52 -259
48 -10 53 -27 24 -96 -11 -24 -17 -49 -14 -56 8 -26 -41 -138 -91 -207 -29
-38 -54 -72 -58 -75 -23 -18 -90 -136 -110 -190 -28 -80 -33 -87 -83 -110 -23
-10 -72 -32 -109 -49 -38 -17 -71 -31 -74 -31 -18 0 -62 -67 -68 -103 -7 -38
-8 -39 -21 -22 -18 24 -18 46 1 81 20 40 19 71 -4 79 -10 3 -26 26 -36 50 -16
43 -17 44 -38 30 -80 -56 -164 -165 -174 -227 -3 -18 -18 -49 -34 -69 -16 -20
-29 -39 -29 -43 0 -8 -58 -138 -70 -156 -6 -8 -14 -24 -19 -35 -5 -11 -26 -39
-47 -62 -22 -23 -52 -56 -68 -74 -38 -45 -66 -61 -166 -94 -78 -26 -91 -34
-160 -103 -41 -41 -98 -92 -127 -113 -72 -54 -83 -73 -83 -144 0 -79 -17 -111
-55 -107 -59 7 -86 49 -120 192 -6 28 -90 140 -104 140 -5 0 -14 -13 -20 -28
-21 -51 12 -130 80 -193 21 -20 39 -42 39 -48 0 -20 40 -92 64 -116 23 -23 86
-60 86 -51 0 14 65 -25 107 -64 26 -25 73 -62 103 -82 30 -21 72 -53 93 -72
22 -19 64 -41 99 -51 56 -17 61 -18 88 -2 23 14 30 14 39 3 6 -7 8 -16 4 -19
-3 -4 5 -7 18 -8 13 0 33 -3 44 -6 11 -3 100 -7 197 -9 139 -2 187 0 220 12
45 16 88 50 88 70 0 21 26 34 76 39 59 5 180 16 214 20 14 2 25 4 25 5 0 3 47
7 150 15 178 13 217 19 275 37 43 14 208 172 253 243 17 28 35 53 40 56 5 3 8
9 8 13 0 3 14 30 33 58 18 29 46 73 62 98 15 25 29 54 29 65 3 42 17 61 70
100 30 22 54 43 55 48 0 4 4 7 9 7 6 0 27 16 48 35 44 41 77 53 98 35 16 -14
27 -5 71 55 10 15 25 33 32 41 8 8 29 44 49 82 19 37 39 73 45 80 6 6 7 12 2
12 -5 0 -4 4 2 8 14 10 92 163 98 193 7 37 42 133 57 157 15 24 39 30 39 10 0
-7 -6 -25 -14 -40 -13 -24 -20 -65 -17 -92 1 -5 7 -3 15 3 49 41 4 -106 -51
-164 -55 -58 -70 -105 -33 -105 25 0 69 65 103 150 21 56 31 95 41 170 1 9 5
20 8 25 3 6 9 28 13 50 10 48 7 37 28 110 10 33 24 76 31 95 8 19 14 38 15 43
2 14 6 28 14 47 21 53 91 304 102 369 3 19 8 38 11 42 3 5 7 21 9 36 2 16 7
39 10 53 3 14 10 48 15 75 6 28 13 61 16 75 3 14 7 40 9 57 3 18 7 50 10 70
18 125 26 906 12 1028 -5 39 -8 95 -7 125 4 117 3 227 -5 265 -4 22 -8 101
-10 175 -1 74 -5 151 -8 170 -3 19 -9 60 -12 90 -3 30 -7 66 -10 80 -2 14 -7
57 -10 95 -3 39 -8 95 -12 125 -3 30 -7 64 -8 75 -1 11 -5 36 -8 55 -4 19 -13
76 -21 125 -20 115 -25 143 -33 180 -4 17 -8 35 -9 40 -1 6 -3 12 -4 15 -2 5
-6 24 -13 55 -3 11 -10 40 -17 65 -7 25 -14 53 -16 64 -2 10 -11 44 -20 75 -9
31 -17 61 -18 66 -1 6 -19 62 -40 125 -21 63 -39 122 -41 130 -3 14 -71 157
-113 237 -10 17 -32 47 -49 67 -34 37 -47 70 -18 46 25 -20 17 4 -14 48 -17
22 -54 58 -84 79 -30 21 -67 55 -83 76 -20 26 -34 37 -47 33 -12 -3 -21 3 -27
19 -13 34 -45 48 -126 54 -61 5 -79 3 -120 -16z m-1991 -5777 c8 -20 -30 -66
-48 -59 -20 7 -19 38 1 57 19 20 40 20 47 2z"/>
<path d="M7151 6862 c-21 -39 -13 -78 20 -106 51 -43 63 -33 43 34 -8 25 -22
56 -33 69 l-19 24 -11 -21z"/>
<path d="M681 6844 c-6 -13 -13 -44 -17 -69 -4 -36 -3 -45 9 -45 42 0 87 83
63 116 -19 26 -42 25 -55 -2z"/>
<path d="M2122 2481 c-2 -32 27 -108 54 -140 10 -12 28 -21 40 -21 27 0 39 47
22 88 -6 15 -12 30 -12 33 -1 3 -12 20 -26 37 -34 43 -75 44 -78 3z"/>
<path d="M5704 2492 c-39 -31 -71 -121 -57 -158 14 -36 68 -4 95 56 45 99 25
153 -38 102z"/>
<path d="M2067 2339 c-18 -10 -18 -12 5 -36 12 -14 35 -31 51 -39 26 -14 27
-14 27 11 0 24 -39 75 -57 75 -4 0 -16 -5 -26 -11z"/>
<path d="M5751 2304 c-37 -49 -37 -59 1 -45 30 11 47 31 50 61 5 38 -15 32
-51 -16z"/>
<path d="M2659 1940 c-4 -37 0 -60 14 -92 18 -43 20 -44 41 -23 12 12 13 21 4
48 -20 58 -56 99 -59 67z"/>
<path d="M5195 1927 c-26 -40 -39 -87 -27 -99 21 -21 62 44 62 98 0 30 -15 31
-35 1z"/>
</g>
</svg>
